<svg xmlns="http://www.w3.org/2000/svg" xmlns:xlink="http://www.w3.org/1999/xlink" width="100" height="100" viewBox="0 0 100 100">
  <defs>
    <clipPath id="clip-path">
      <rect id="Ret칙ngulo_36" data-name="Ret칙ngulo 36" width="100" height="100" transform="translate(428 2029)" fill="#c1c1c1" stroke="#707070" stroke-width="1"/>
    </clipPath>
  </defs>
  <g id="Grupo_de_m치scara_10" data-name="Grupo de m치scara 10" transform="translate(-428 -2029)" clip-path="url(#clip-path)">
    <g id="file-earmark-text" transform="translate(428 2029)">
      <path id="Caminho_8" data-name="Caminho 8" d="M34.375,43.75a3.125,3.125,0,0,0,0,6.25h31.25a3.125,3.125,0,0,0,0-6.25ZM31.25,59.375a3.125,3.125,0,0,1,3.125-3.125h31.25a3.125,3.125,0,0,1,0,6.25H34.375A3.125,3.125,0,0,1,31.25,59.375Zm0,12.5a3.125,3.125,0,0,1,3.125-3.125h12.5a3.125,3.125,0,0,1,0,6.25h-12.5A3.125,3.125,0,0,1,31.25,71.875Z"/>
      <path id="Caminho_9" data-name="Caminho 9" d="M59.375,0H25A12.5,12.5,0,0,0,12.5,12.5v75A12.5,12.5,0,0,0,25,100H75A12.5,12.5,0,0,0,87.5,87.5V28.125Zm0,6.25v12.5a9.375,9.375,0,0,0,9.375,9.375h12.5V87.5A6.25,6.25,0,0,1,75,93.75H25a6.25,6.25,0,0,1-6.25-6.25v-75A6.25,6.25,0,0,1,25,6.25Z"/>
    </g>
  </g>
</svg>
