<svg xmlns="http://www.w3.org/2000/svg" xmlns:xlink="http://www.w3.org/1999/xlink" width="100" height="100" viewBox="0 0 100 100">
  <defs>
    <clipPath id="clip-path">
      <rect id="Ret칙ngulo_35" data-name="Ret칙ngulo 35" width="100" height="100" transform="translate(708 2029)" fill="#c1c1c1" stroke="#707070" stroke-width="1"/>
    </clipPath>
  </defs>
  <g id="Grupo_de_m치scara_12" data-name="Grupo de m치scara 12" transform="translate(-708 -2029)" clip-path="url(#clip-path)">
    <path id="tools" d="M6.216,0,0,6.216,13.676,25.369a6.216,6.216,0,0,0,5.066,2.6h.435a6.216,6.216,0,0,1,4.4,1.821L40.207,46.423l-16.268,16.5a18.631,18.631,0,1,0,12.6,12.6l16.5-16.268,6.017,6.017-1.9,5.682a6.216,6.216,0,0,0,1.5,6.359L79.525,98.174a6.216,6.216,0,0,0,8.79,0l9.859-9.859a6.216,6.216,0,0,0,0-8.79L77.312,58.663a6.216,6.216,0,0,0-6.359-1.5l-5.682,1.9L59.3,53.087l16.66-16.43a18.68,18.68,0,0,0,23.5-18.009,18.442,18.442,0,0,0-.634-4.83l-13.3,13.309L74.6,24.865,72.333,13.943,85.642.634A18.649,18.649,0,0,0,62.8,23.51L46.386,40.157,29.795,23.578a6.216,6.216,0,0,1-1.821-4.395v-.441a6.217,6.217,0,0,0-2.605-5.06ZM66.179,66.179a3.108,3.108,0,0,1,4.4,0L89.229,84.828a3.112,3.112,0,1,1-4.4,4.4L66.179,70.58a3.108,3.108,0,0,1,0-4.4Zm-47.53,2.2,2.928,1.5,3.288.162,1.784,2.766L29.416,74.6l.162,3.288,1.5,2.928-1.5,2.928-.162,3.288-2.766,1.784-1.784,2.766-3.288.162-2.928,1.5-2.928-1.5-3.288-.162-1.784-2.766L7.882,87.028,7.721,83.74l-1.5-2.928,1.5-2.928L7.882,74.6l2.766-1.784,1.784-2.766,3.288-.162Z" transform="translate(708.003 2029.006)"/>
  </g>
</svg>
