<svg xmlns="http://www.w3.org/2000/svg" xmlns:xlink="http://www.w3.org/1999/xlink" width="50" height="50" viewBox="0 0 50 50">
  <defs>
    <clipPath id="clip-path">
      <rect id="Ret칙ngulo_15" data-name="Ret칙ngulo 15" width="50" height="50" transform="translate(596 3523)" fill="#fff" stroke="#484848" stroke-width="1"/>
    </clipPath>
  </defs>
  <g id="Grupo_de_m치scara_1" data-name="Grupo de m치scara 1" transform="translate(-596 -3523)" clip-path="url(#clip-path)">
    <g id="local" transform="translate(596 3523)">
      <path id="Caminho_1" data-name="Caminho 1" d="M38.019,27.937a60.08,60.08,0,0,1-6.125,9.594A98.414,98.414,0,0,1,25,45.563a98.38,98.38,0,0,1-6.894-8.031,60.08,60.08,0,0,1-6.125-9.594A21.621,21.621,0,0,1,9.375,18.75a15.625,15.625,0,0,1,31.25,0,21.666,21.666,0,0,1-2.606,9.188ZM25,50S43.75,32.231,43.75,18.75a18.75,18.75,0,1,0-37.5,0C6.25,32.231,25,50,25,50Z"/>
      <path id="Caminho_2" data-name="Caminho 2" d="M25,25a6.25,6.25,0,1,1,6.25-6.25A6.25,6.25,0,0,1,25,25Zm0,3.125a9.375,9.375,0,1,0-9.375-9.375A9.375,9.375,0,0,0,25,28.125Z"/>
    </g>
  </g>
</svg>
