<svg xmlns="http://www.w3.org/2000/svg" xmlns:xlink="http://www.w3.org/1999/xlink" width="100" height="100" viewBox="0 0 100 100">
  <defs>
    <clipPath id="clip-path">
      <rect id="Ret칙ngulo_32" data-name="Ret칙ngulo 32" width="100" height="100" transform="translate(150 2029)" fill="#c1c1c1" stroke="#707070" stroke-width="1"/>
    </clipPath>
  </defs>
  <g id="Grupo_de_m치scara_11" data-name="Grupo de m치scara 11" transform="translate(-150 -2029)" clip-path="url(#clip-path)">
    <g id="stickies" transform="translate(150 2029)">
      <path id="Caminho_10" data-name="Caminho 10" d="M9.375,0A9.375,9.375,0,0,0,0,9.375V81.25A6.25,6.25,0,0,0,6.25,87.5V9.375A3.125,3.125,0,0,1,9.375,6.25H87.5A6.25,6.25,0,0,0,81.25,0Z"/>
      <path id="Caminho_11" data-name="Caminho 11" d="M21.875,12.5A9.375,9.375,0,0,0,12.5,21.875v68.75A9.375,9.375,0,0,0,21.875,100H59.912a9.375,9.375,0,0,0,6.625-2.75L97.256,66.537A9.375,9.375,0,0,0,100,59.912V21.875A9.375,9.375,0,0,0,90.625,12.5ZM18.75,21.875a3.125,3.125,0,0,1,3.125-3.125h68.75a3.125,3.125,0,0,1,3.125,3.125V56.25H65.625a9.375,9.375,0,0,0-9.375,9.375V93.75H21.875a3.125,3.125,0,0,1-3.125-3.125ZM62.5,92.456V65.625A3.125,3.125,0,0,1,65.625,62.5H92.456Z"/>
    </g>
  </g>
</svg>
