<svg xmlns="http://www.w3.org/2000/svg" xmlns:xlink="http://www.w3.org/1999/xlink" width="60" height="60" viewBox="0 0 60 60">
  <defs>
    <clipPath id="clip-path">
      <rect id="Ret칙ngulo_48" data-name="Ret칙ngulo 48" width="60" height="60" transform="translate(1453 4763)" fill="#00bf0d" stroke="#707070" stroke-width="1"/>
    </clipPath>
  </defs>
  <g id="Grupo_de_m치scara_9" data-name="Grupo de m치scara 9" transform="translate(-1453 -4763)" clip-path="url(#clip-path)">
    <path id="WhatsApp-Logo-Icon" d="M44.76,0c.36,0,1.08,0,1.62.06a22.134,22.134,0,0,1,3.84.3,12.089,12.089,0,0,1,3.24,1.08,10.616,10.616,0,0,1,3,2.16,10.474,10.474,0,0,1,2.1,2.94,12.089,12.089,0,0,1,1.08,3.24A28.915,28.915,0,0,1,60,13.62V44.76c0,.36,0,1.08-.06,1.62a22.135,22.135,0,0,1-.3,3.84,12.089,12.089,0,0,1-1.08,3.24,10.616,10.616,0,0,1-2.16,3,10.474,10.474,0,0,1-2.94,2.1,12.089,12.089,0,0,1-3.24,1.08,28.913,28.913,0,0,1-3.84.36H15.24c-.36,0-1.08,0-1.62-.06a22.134,22.134,0,0,1-3.84-.3,12.089,12.089,0,0,1-3.24-1.08,10.616,10.616,0,0,1-3-2.16,10.474,10.474,0,0,1-2.1-2.94A12.089,12.089,0,0,1,.36,50.22,28.914,28.914,0,0,1,0,46.38V15.24c0-.36,0-1.08.06-1.62a22.134,22.134,0,0,1,.3-3.84A12.089,12.089,0,0,1,1.44,6.54a10.616,10.616,0,0,1,2.16-3,10.474,10.474,0,0,1,2.94-2.1A12.089,12.089,0,0,1,9.78.36,28.912,28.912,0,0,1,13.62,0H44.76Zm1.019,14.363a21.389,21.389,0,0,0-33.662,25.8L9.083,51.24l11.338-2.973a21.378,21.378,0,0,0,10.221,2.6h.009A21.389,21.389,0,0,0,45.779,14.363ZM30.65,47.258h-.007A17.753,17.753,0,0,1,21.6,44.781l-.649-.385L14.218,46.16l1.8-6.558-.423-.672A17.778,17.778,0,1,1,30.65,47.258ZM40.4,33.949c-.534-.267-3.162-1.56-3.652-1.738s-.846-.267-1.2.267-1.38,1.738-1.692,2.095-.623.4-1.158.134a14.591,14.591,0,0,1-4.3-2.652,16.1,16.1,0,0,1-2.973-3.7c-.312-.535-.033-.824.234-1.09.24-.239.534-.624.8-.936A3.644,3.644,0,0,0,27,25.437a.984.984,0,0,0-.045-.936c-.134-.267-1.2-2.9-1.648-3.967-.434-1.042-.874-.9-1.2-.917-.311-.015-.668-.019-1.024-.019a1.964,1.964,0,0,0-1.425.668,5.991,5.991,0,0,0-1.87,4.457c0,2.629,1.915,5.17,2.182,5.526S25.733,36,31.094,38.317a30.754,30.754,0,0,0,3.047,1.125,7.328,7.328,0,0,0,3.366.212c1.027-.153,3.162-1.292,3.607-2.54a4.465,4.465,0,0,0,.312-2.54c-.133-.223-.49-.357-1.024-.624Z" transform="translate(1453 4763)" fill="#00bf0d"/>
  </g>
</svg>
